<?xml version="1.0" encoding="UTF-8"?><svg id="Layer_2" xmlns="http://www.w3.org/2000/svg" viewBox="0 0 498.17 453.96"><defs><style>.cls-1{fill:#cf8d78;}.cls-2{fill:#dae9ee;}</style></defs><ellipse class="cls-2" cx="246.66" cy="226.98" rx="259.3" ry="212.35" transform="translate(-83.41 168.54) rotate(-32.58)"/><g><g><g><circle class="cls-1" cx="456.41" cy="161.4" r="5.98"/><circle class="cls-1" cx="443.26" cy="121.11" r="1.49" transform="translate(-15.7 143.53) rotate(-18.08)"/><circle class="cls-1" cx="444.81" cy="125.86" r="1.79" transform="translate(-17.1 144.25) rotate(-18.08)"/><circle class="cls-1" cx="446.62" cy="131.4" r="2.09"/><circle class="cls-1" cx="448.57" cy="137.38" r="2.47" transform="translate(-20.49 145.98) rotate(-18.08)"/><circle class="cls-1" cx="450.71" cy="143.94" r="2.84" transform="translate(-22.42 146.97) rotate(-18.08)"/><circle class="cls-1" cx="453.05" cy="151.09" r="3.44" transform="translate(-24.52 148.05) rotate(-18.08)"/></g><g><circle class="cls-1" cx="456.35" cy="161.42" r="5.98"/><circle class="cls-1" cx="469.5" cy="201.71" r="1.49" transform="translate(-39.41 155.66) rotate(-18.08)"/><circle class="cls-1" cx="467.95" cy="196.96" r="1.79" transform="translate(-38.02 154.94) rotate(-18.08)"/><circle class="cls-1" cx="466.14" cy="191.41" r="2.09"/><circle class="cls-1" cx="464.19" cy="185.43" r="2.47" transform="translate(-34.63 153.2) rotate(-18.08)"/><circle class="cls-1" cx="462.05" cy="178.88" r="2.84" transform="translate(-32.7 152.22) rotate(-18.08)"/><circle class="cls-1" cx="459.72" cy="171.72" r="3.44" transform="translate(-30.59 151.14) rotate(-18.08)"/></g></g><g><g><circle class="cls-1" cx="456.39" cy="161.44" r="5.98"/><circle class="cls-1" cx="496.68" cy="148.28" r="1.49" transform="translate(-21.5 161.45) rotate(-18.08)"/><circle class="cls-1" cx="491.93" cy="149.83" r="1.79" transform="translate(-22.21 160.05) rotate(-18.08)"/><circle class="cls-1" cx="486.39" cy="151.64" r="2.09"/><circle class="cls-1" cx="480.41" cy="153.6" r="2.47" transform="translate(-23.95 156.66) rotate(-18.08)"/><circle class="cls-1" cx="473.85" cy="155.74" r="2.84" transform="translate(-24.94 154.73) rotate(-18.08)"/><circle class="cls-1" cx="466.7" cy="158.07" r="3.44" transform="translate(-26.01 152.63) rotate(-18.08)"/></g><g><circle class="cls-1" cx="456.37" cy="161.38" r="5.98"/><circle class="cls-1" cx="416.08" cy="174.53" r="1.49" transform="translate(-33.62 137.74) rotate(-18.08)"/><circle class="cls-1" cx="420.83" cy="172.98" r="1.79" transform="translate(-32.9 139.13) rotate(-18.08)"/><circle class="cls-1" cx="426.38" cy="171.17" r="2.09"/><circle class="cls-1" cx="432.36" cy="169.22" r="2.47" transform="translate(-31.17 142.52) rotate(-18.08)"/><circle class="cls-1" cx="438.91" cy="167.08" r="2.84" transform="translate(-30.18 144.45) rotate(-18.08)"/><circle class="cls-1" cx="446.07" cy="164.74" r="3.44" transform="translate(-29.1 146.56) rotate(-18.08)"/></g></g><g><g><circle class="cls-1" cx="456.41" cy="161.42" r="5.98"/><circle class="cls-1" cx="475.6" cy="123.63" r="1.49" transform="translate(150.03 491.71) rotate(-63.08)"/><circle class="cls-1" cx="473.34" cy="128.09" r="1.79" transform="translate(144.82 492.13) rotate(-63.08)"/><circle class="cls-1" cx="470.69" cy="133.29" r="2.09"/><circle class="cls-1" cx="467.85" cy="138.9" r="2.47" transform="translate(132.18 493.15) rotate(-63.08)"/><circle class="cls-1" cx="464.72" cy="145.04" r="2.84" transform="translate(124.99 493.73) rotate(-63.08)"/><circle class="cls-1" cx="461.32" cy="151.75" r="3.44" transform="translate(117.14 494.37) rotate(-63.08)"/></g><g><circle class="cls-1" cx="456.35" cy="161.39" r="5.98"/><circle class="cls-1" cx="437.17" cy="199.18" r="1.49" transform="translate(61.64 498.79) rotate(-63.08)"/><circle class="cls-1" cx="439.43" cy="194.73" r="1.79" transform="translate(66.84 498.37) rotate(-63.08)"/><circle class="cls-1" cx="442.07" cy="189.53" r="2.09"/><circle class="cls-1" cx="444.92" cy="183.92" r="2.47" transform="translate(79.49 497.35) rotate(-63.08)"/><circle class="cls-1" cx="448.04" cy="177.77" r="2.84" transform="translate(86.68 496.77) rotate(-63.08)"/><circle class="cls-1" cx="451.45" cy="171.06" r="3.44" transform="translate(94.52 496.13) rotate(-63.08)"/></g></g><g><g><circle class="cls-1" cx="456.37" cy="161.43" r="5.98"/><circle class="cls-1" cx="494.16" cy="180.62" r="1.49" transform="translate(109.37 539.45) rotate(-63.08)"/><circle class="cls-1" cx="489.7" cy="178.36" r="1.79" transform="translate(108.95 534.24) rotate(-63.08)"/><circle class="cls-1" cx="484.5" cy="175.72" r="2.09"/><circle class="cls-1" cx="478.89" cy="172.87" r="2.47" transform="translate(107.93 521.59) rotate(-63.08)"/><circle class="cls-1" cx="472.75" cy="169.75" r="2.84" transform="translate(107.35 514.41) rotate(-63.08)"/><circle class="cls-1" cx="466.03" cy="166.34" r="3.44" transform="translate(106.71 506.56) rotate(-63.08)"/></g><g><circle class="cls-1" cx="456.4" cy="161.38" r="5.98"/><circle class="cls-1" cx="418.61" cy="142.19" r="1.49" transform="translate(102.29 451.05) rotate(-63.08)"/><circle class="cls-1" cx="423.06" cy="144.45" r="1.79" transform="translate(102.71 456.26) rotate(-63.08)"/><circle class="cls-1" cx="428.26" cy="147.09" r="2.09"/><circle class="cls-1" cx="433.87" cy="149.94" r="2.47" transform="translate(103.74 468.91) rotate(-63.08)"/><circle class="cls-1" cx="440.02" cy="153.06" r="2.84" transform="translate(104.32 476.09) rotate(-63.08)"/><circle class="cls-1" cx="446.73" cy="156.47" r="3.44" transform="translate(104.95 483.94) rotate(-63.08)"/></g></g></g><g><g><g><circle class="cls-1" cx="400.3" cy="82.73" r="4"/><circle class="cls-1" cx="391.49" cy="55.75" r="1" transform="translate(2.03 124.24) rotate(-18.08)"/><circle class="cls-1" cx="392.53" cy="58.93" r="1.2" transform="translate(1.09 124.72) rotate(-18.08)"/><circle class="cls-1" cx="393.74" cy="62.65" r="1.4"/><circle class="cls-1" cx="395.05" cy="66.65" r="1.65" transform="translate(-1.18 125.88) rotate(-18.08)"/><circle class="cls-1" cx="396.48" cy="71.04" r="1.9" transform="translate(-2.47 126.54) rotate(-18.08)"/><circle class="cls-1" cx="398.04" cy="75.83" r="2.3" transform="translate(-3.88 127.26) rotate(-18.08)"/></g><g><circle class="cls-1" cx="400.26" cy="82.75" r="4"/><circle class="cls-1" cx="409.06" cy="109.72" r="1" transform="translate(-13.86 132.36) rotate(-18.08)"/><circle class="cls-1" cx="408.03" cy="106.55" r="1.2" transform="translate(-12.92 131.88) rotate(-18.08)"/><circle class="cls-1" cx="406.81" cy="102.83" r="1.4"/><circle class="cls-1" cx="405.51" cy="98.83" r="1.65" transform="translate(-10.65 130.72) rotate(-18.08)"/><circle class="cls-1" cx="404.07" cy="94.44" r="1.9" transform="translate(-9.36 130.06) rotate(-18.08)"/><circle class="cls-1" cx="402.51" cy="89.65" r="2.3" transform="translate(-7.95 129.33) rotate(-18.08)"/></g></g><g><g><circle class="cls-1" cx="400.28" cy="82.76" r="4"/><circle class="cls-1" cx="427.26" cy="73.95" r="1" transform="translate(-1.86 136.24) rotate(-18.08)"/><circle class="cls-1" cx="424.08" cy="74.99" r="1.2" transform="translate(-2.33 135.3) rotate(-18.08)"/><circle class="cls-1" cx="420.37" cy="76.2" r="1.4"/><circle class="cls-1" cx="416.36" cy="77.51" r="1.65" transform="translate(-3.5 133.03) rotate(-18.08)"/><circle class="cls-1" cx="411.98" cy="78.94" r="1.9" transform="translate(-4.16 131.74) rotate(-18.08)"/><circle class="cls-1" cx="407.18" cy="80.51" r="2.3" transform="translate(-4.88 130.33) rotate(-18.08)"/></g><g><circle class="cls-1" cx="400.27" cy="82.72" r="4"/><circle class="cls-1" cx="373.29" cy="91.53" r="1" transform="translate(-9.97 120.36) rotate(-18.08)"/><circle class="cls-1" cx="376.47" cy="90.49" r="1.2" transform="translate(-9.49 121.29) rotate(-18.08)"/><circle class="cls-1" cx="380.18" cy="89.28" r="1.4"/><circle class="cls-1" cx="384.19" cy="87.97" r="1.65" transform="translate(-8.33 123.57) rotate(-18.08)"/><circle class="cls-1" cx="388.58" cy="86.54" r="1.9" transform="translate(-7.67 124.86) rotate(-18.08)"/><circle class="cls-1" cx="393.37" cy="84.97" r="2.3" transform="translate(-6.95 126.27) rotate(-18.08)"/></g></g><g><g><circle class="cls-1" cx="400.29" cy="82.75" r="4"/><circle class="cls-1" cx="413.14" cy="57.44" r="1" transform="translate(174.87 399.81) rotate(-63.08)"/><circle class="cls-1" cx="411.63" cy="60.43" r="1.2" transform="translate(171.38 400.09) rotate(-63.08)"/><circle class="cls-1" cx="409.86" cy="63.91" r="1.4"/><circle class="cls-1" cx="407.95" cy="67.67" r="1.65" transform="translate(162.91 400.77) rotate(-63.08)"/><circle class="cls-1" cx="405.86" cy="71.78" r="1.9" transform="translate(158.1 401.16) rotate(-63.08)"/><circle class="cls-1" cx="403.58" cy="76.28" r="2.3" transform="translate(152.84 401.58) rotate(-63.08)"/></g><g><circle class="cls-1" cx="400.26" cy="82.73" r="4"/><circle class="cls-1" cx="387.41" cy="108.03" r="1" transform="translate(115.68 404.54) rotate(-63.08)"/><circle class="cls-1" cx="388.92" cy="105.05" r="1.2" transform="translate(119.16 404.26) rotate(-63.08)"/><circle class="cls-1" cx="390.69" cy="101.57" r="1.4"/><circle class="cls-1" cx="392.6" cy="97.81" r="1.65" transform="translate(127.63 403.58) rotate(-63.08)"/><circle class="cls-1" cx="394.69" cy="93.7" r="1.9" transform="translate(132.44 403.19) rotate(-63.08)"/><circle class="cls-1" cx="396.97" cy="89.2" r="2.3" transform="translate(137.7 402.77) rotate(-63.08)"/></g></g><g><g><circle class="cls-1" cx="400.27" cy="82.76" r="4"/><circle class="cls-1" cx="425.57" cy="95.61" r="1" transform="translate(147.64 431.77) rotate(-63.08)"/><circle class="cls-1" cx="422.59" cy="94.09" r="1.2" transform="translate(147.36 428.28) rotate(-63.08)"/><circle class="cls-1" cx="419.11" cy="92.32" r="1.4"/><circle class="cls-1" cx="415.35" cy="90.42" r="1.65" transform="translate(146.68 419.82) rotate(-63.08)"/><circle class="cls-1" cx="411.23" cy="88.33" r="1.9" transform="translate(146.29 415) rotate(-63.08)"/><circle class="cls-1" cx="406.74" cy="86.04" r="2.3" transform="translate(145.86 409.75) rotate(-63.08)"/></g><g><circle class="cls-1" cx="400.29" cy="82.72" r="4"/><circle class="cls-1" cx="374.98" cy="69.87" r="1" transform="translate(142.9 372.58) rotate(-63.08)"/><circle class="cls-1" cx="377.96" cy="71.39" r="1.2" transform="translate(143.18 376.07) rotate(-63.08)"/><circle class="cls-1" cx="381.45" cy="73.15" r="1.4"/><circle class="cls-1" cx="385.2" cy="75.06" r="1.65" transform="translate(143.87 384.53) rotate(-63.08)"/><circle class="cls-1" cx="389.32" cy="77.15" r="1.9" transform="translate(144.26 389.35) rotate(-63.08)"/><circle class="cls-1" cx="393.81" cy="79.43" r="2.3" transform="translate(144.68 394.6) rotate(-63.08)"/></g></g></g><g><g><g><circle class="cls-1" cx="462.05" cy="79.71" r="1.93"/><circle class="cls-1" cx="457.81" cy="66.72" r=".48" transform="translate(1.9 145.36) rotate(-18.08)"/><circle class="cls-1" cx="458.31" cy="68.25" r=".58" transform="translate(1.45 145.59) rotate(-18.08)"/><circle class="cls-1" cx="458.89" cy="70.04" r=".67"/><circle class="cls-1" cx="459.52" cy="71.97" r=".8" transform="translate(.35 146.15) rotate(-18.08)"/><circle class="cls-1" cx="460.21" cy="74.08" r=".92"/><circle class="cls-1" cx="460.96" cy="76.39" r="1.11" transform="translate(-.95 146.82) rotate(-18.08)"/></g><g><circle class="cls-1" cx="462.03" cy="79.72" r="1.93"/><circle class="cls-1" cx="466.27" cy="92.71" r=".48" transform="translate(-5.75 149.27) rotate(-18.08)"/><circle class="cls-1" cx="465.77" cy="91.18" r=".58" transform="translate(-5.3 149.04) rotate(-18.08)"/><circle class="cls-1" cx="465.19" cy="89.39" r=".67"/><circle class="cls-1" cx="464.56" cy="87.47" r=".8" transform="translate(-4.21 148.48) rotate(-18.08)"/><circle class="cls-1" cx="463.87" cy="85.35" r=".92"/><circle class="cls-1" cx="463.12" cy="83.04" r="1.11" transform="translate(-2.91 147.81) rotate(-18.08)"/></g></g><g><g><circle class="cls-1" cx="462.04" cy="79.73" r="1.93"/><circle class="cls-1" cx="475.04" cy="75.48" r=".48" transform="translate(.03 151.14) rotate(-18.08)"/><circle class="cls-1" cx="473.51" cy="75.98" r=".58" transform="translate(-.2 150.69) rotate(-18.08)"/><circle class="cls-1" cx="471.72" cy="76.57" r=".67"/><circle class="cls-1" cx="469.79" cy="77.2" r=".8" transform="translate(-.76 149.6) rotate(-18.08)"/><circle class="cls-1" cx="467.68" cy="77.89" r=".92"/><circle class="cls-1" cx="465.37" cy="78.64" r="1.11" transform="translate(-1.43 148.3) rotate(-18.08)"/></g><g><circle class="cls-1" cx="462.04" cy="79.71" r="1.93"/><circle class="cls-1" cx="449.04" cy="83.95" r=".48" transform="translate(-3.88 143.49) rotate(-18.08)"/><circle class="cls-1" cx="450.57" cy="83.45" r=".58" transform="translate(-3.65 143.94) rotate(-18.08)"/><circle class="cls-1" cx="452.36" cy="82.87" r=".67"/><circle class="cls-1" cx="454.29" cy="82.24" r=".8" transform="translate(-3.09 145.04) rotate(-18.08)"/><circle class="cls-1" cx="456.41" cy="81.55" r=".92"/><circle class="cls-1" cx="458.71" cy="80.79" r="1.11" transform="translate(-2.43 146.34) rotate(-18.08)"/></g></g><g><g><circle class="cls-1" cx="462.05" cy="79.72" r="1.93"/><circle class="cls-1" cx="468.24" cy="67.53" r=".48" transform="translate(196.02 454.45) rotate(-63.08)"/><circle class="cls-1" cx="467.51" cy="68.97" r=".58" transform="translate(194.34 454.59) rotate(-63.08)"/><circle class="cls-1" cx="466.66" cy="70.65" r=".67"/><circle class="cls-1" cx="465.74" cy="72.46" r=".8" transform="translate(190.26 454.92) rotate(-63.08)"/><circle class="cls-1" cx="464.73" cy="74.44" r=".92"/><circle class="cls-1" cx="463.63" cy="76.6" r="1.11" transform="translate(185.41 455.31) rotate(-63.08)"/></g><g><circle class="cls-1" cx="462.03" cy="79.71" r="1.93"/><circle class="cls-1" cx="455.84" cy="91.9" r=".48" transform="translate(167.51 456.73) rotate(-63.08)"/><circle class="cls-1" cx="456.57" cy="90.46" r=".58" transform="translate(169.19 456.6) rotate(-63.08)"/><circle class="cls-1" cx="457.42" cy="88.79" r=".67"/><circle class="cls-1" cx="458.34" cy="86.98" r=".8" transform="translate(173.27 456.27) rotate(-63.08)"/><circle class="cls-1" cx="459.35" cy="84.99" r=".92"/><circle class="cls-1" cx="460.45" cy="82.83" r="1.11" transform="translate(178.12 455.88) rotate(-63.08)"/></g></g><g><g><circle class="cls-1" cx="462.04" cy="79.73" r="1.93"/><circle class="cls-1" cx="474.22" cy="85.91" r=".48" transform="translate(182.91 469.85) rotate(-63.08)"/><circle class="cls-1" cx="472.79" cy="85.19" r=".58" transform="translate(182.77 468.17) rotate(-63.08)"/><circle class="cls-1" cx="471.11" cy="84.33" r=".67"/><circle class="cls-1" cx="469.3" cy="83.41" r=".8" transform="translate(182.44 464.09) rotate(-63.08)"/><circle class="cls-1" cx="467.32" cy="82.41" r=".92"/><circle class="cls-1" cx="465.15" cy="81.31" r="1.11" transform="translate(182.05 459.24) rotate(-63.08)"/></g><g><circle class="cls-1" cx="462.04" cy="79.71" r="1.93"/><circle class="cls-1" cx="449.86" cy="73.52" r=".48" transform="translate(180.62 441.34) rotate(-63.08)"/><circle class="cls-1" cx="451.29" cy="74.25" r=".58" transform="translate(180.76 443.02) rotate(-63.08)"/><circle class="cls-1" cx="452.97" cy="75.1" r=".67"/><circle class="cls-1" cx="454.78" cy="76.02" r=".8" transform="translate(181.09 447.1) rotate(-63.08)"/><circle class="cls-1" cx="456.76" cy="77.03" r=".92"/><circle class="cls-1" cx="458.93" cy="78.13" r="1.11" transform="translate(181.48 451.95) rotate(-63.08)"/></g></g></g></svg>